default.ufo
<glyph name="comma" format="1">
  <advance width="180"/>
  <unicode hex="002C"/>
  <outline>
    <contour>
      <point x="128" y="155" type="move"/>
      <point x="62" y="-128" type="line"/>
    </contour>
  </outline>
</glyph>
<glyph name="hyphen" format="1">
  <advance width="418.48"/>
  <unicode hex="002D"/>
  <outline>
    <contour>
      <point x="81.07" y="340" type="move"/>
      <point x="337.41" y="340" type="line"/>
    </contour>
  </outline>
</glyph>
<glyph name="period" format="1">
  <advance width="90"/>
  <unicode hex="002E"/>
  <outline>
    <contour>
      <point x="55.08" y="0"/>
      <point x="63.26" y="8.18"/>
      <point x="63.26" y="18.28" type="curve" smooth="yes"/>
      <point x="63.26" y="28.38"/>
      <point x="55.08" y="36.56"/>
      <point x="45" y="36.56" type="curve" smooth="yes"/>
      <point x="34.92" y="36.56"/>
      <point x="26.74" y="28.38"/>
      <point x="26.74" y="18.28" type="curve" smooth="yes"/>
      <point x="26.74" y="8.18"/>
      <point x="34.92" y="0"/>
      <point x="45" y="0" type="curve" name="filled" smooth="yes"/>
    </contour>
  </outline>
</glyph>
<glyph name="slash" format="1">
  <advance width="555"/>
  <unicode hex="002F"/>
  <outline>
    <contour>
      <point x="493" y="680" type="move"/>
      <point x="62" y="0" type="line"/>
    </contour>
  </outline>
</glyph>
<glyph name="zero" format="1">
  <advance width="604"/>
  <unicode hex="0030"/>
  <outline>
    <contour>
      <point x="521.36" y="148.14"/>
      <point x="444.76" y="-7.32"/>
      <point x="302" y="-7.32" type="curve" smooth="yes"/>
      <point x="159.24" y="-7.32"/>
      <point x="82.64" y="148.14"/>
      <point x="82.64" y="340" type="curve" smooth="yes"/>
      <point x="82.64" y="531.86"/>
      <point x="159.24" y="687.32"/>
      <point x="302" y="687.32" type="curve" smooth="yes"/>
      <point x="444.76" y="687.32"/>
      <point x="521.36" y="531.86"/>
      <point x="521.36" y="340" type="curve" smooth="yes"/>
    </contour>
  </outline>
</glyph>
<glyph name="one" format="1">
  <advance width="524"/>
  <unicode hex="0031"/>
  <outline>
    <contour>
      <point x="100" y="1245" type="move"/>
      <point x="308" y="1360" type="line"/>
      <point x="308" y="0" type="line"/>
    </contour>
  </outline>
</glyph>
<glyph name="two" format="1">
  <advance width="482"/>
  <unicode hex="0032"/>
  <outline>
    <contour>
      <point x="61.18" y="591.78" type="move"/>
      <point x="103.66" y="655.84"/>
      <point x="166.72" y="687.32"/>
      <point x="249.11" y="687.32" type="curve" smooth="yes"/>
      <point x="308.65" y="687.32"/>
      <point x="426.88" y="657.32"/>
      <point x="426.88" y="526.44" type="curve" smooth="yes"/>
      <point x="426.88" y="325.2"/>
      <point x="55.5" y="206.92"/>
      <point x="55.5" y="0" type="curve"/>
      <point x="446.5" y="0" type="line"/>
    </contour>
  </outline>
</glyph>
<glyph name="three" format="1">
  <advance width="604"/>
  <unicode hex="0033"/>
  <outline>
    <contour>
      <point x="111.74" y="88.3" type="move"/>
      <point x="154.2" y="24.18"/>
      <point x="217.4" y="-7.32"/>
      <point x="299.78" y="-7.32" type="curve" smooth="yes"/>
      <point x="400.96" y="-7.32"/>
      <point x="492.26" y="58.06"/>
      <point x="492.26" y="174.42" type="curve" smooth="yes"/>
      <point x="492.26" y="293.78"/>
      <point x="405.44" y="364.1"/>
      <point x="272.52" y="364.1" type="curve" smooth="yes"/>
      <point x="270.3" y="364.1" type="line"/>
      <point x="403.22" y="364.1"/>
      <point x="475.42" y="434.18"/>
      <point x="475.42" y="535.54" type="curve" smooth="yes"/>
      <point x="475.42" y="636"/>
      <point x="398.7" y="687.32"/>
      <point x="297.52" y="687.32" type="curve" smooth="yes"/>
      <point x="230.98" y="687.32"/>
      <point x="177.02" y="666.76"/>
      <point x="136.34" y="625" type="curve"/>
    </contour>
  </outline>
</glyph>
<glyph name="four" format="1">
  <advance width="604"/>
  <unicode hex="0034"/>
  <outline>
    <contour>
      <point x="391.08" y="0" type="move"/>
      <point x="391.08" y="680" type="line"/>
      <point x="82.64" y="177.35" type="line"/>
      <point x="521.36" y="177.35" type="line"/>
    </contour>
  </outline>
</glyph>
<glyph name="five" format="1">
  <advance width="482"/>
  <unicode hex="0035"/>
  <outline>
    <contour>
      <point x="405" y="680" type="move"/>
      <point x="109" y="680" type="line"/>
      <point x="81" y="340" type="line"/>
      <point x="135.6" y="381.8"/>
      <point x="179.3" y="398.02"/>
      <point x="248.1" y="398.02" type="curve" smooth="yes"/>
      <point x="382.5" y="398.02"/>
      <point x="439.46" y="307.35"/>
      <point x="439.46" y="195.35" type="curve" smooth="yes"/>
      <point x="439.46" y="83.35"/>
      <point x="369.24" y="-7.32"/>
      <point x="244.44" y="-7.32" type="curve" smooth="yes"/>
      <point x="162" y="-7.32"/>
      <point x="93.03" y="24.16"/>
      <point x="50.54" y="88.28" type="curve"/>
    </contour>
  </outline>
</glyph>
<glyph name="six" format="1">
  <advance width="604"/>
  <unicode hex="0036"/>
  <outline>
    <contour>
      <point x="143.8" y="91.5" type="move"/>
      <point x="135.68" y="106.86"/>
      <point x="129.44" y="123.54"/>
      <point x="125.25" y="141.18" type="curve" smooth="yes"/>
      <point x="121.15" y="158.43"/>
      <point x="119.02" y="176.57"/>
      <point x="119.02" y="195.35" type="curve" smooth="yes"/>
      <point x="119.02" y="307.29"/>
      <point x="195.1" y="397.99"/>
      <point x="310" y="397.99" type="curve" smooth="yes"/>
      <point x="425" y="397.99"/>
      <point x="501" y="307.29"/>
      <point x="501" y="195.35" type="curve" smooth="yes"/>
      <point x="501" y="83.36"/>
      <point x="425" y="-7.32"/>
      <point x="310" y="-7.32" type="curve" smooth="yes"/>
      <point x="248.39" y="-7.32"/>
      <point x="197.92" y="18.75"/>
      <point x="164.4" y="60.19" type="curve" smooth="yes"/>
      <point x="156.59" y="69.84"/>
      <point x="149.7" y="80.32"/>
      <point x="143.8" y="91.5" type="curve" smooth="yes"/>
      <point x="92.99" y="187.72"/>
      <point x="99.23" y="339.38"/>
      <point x="110.78" y="442.97" type="curve" smooth="yes"/>
      <point x="129.87" y="614.08"/>
      <point x="218.16" y="687.32"/>
      <point x="315.93" y="687.32" type="curve" smooth="yes"/>
      <point x="380.98" y="687.32"/>
      <point x="429.26" y="666.75"/>
      <point x="469" y="625.09" type="curve" smooth="yes"/>
    </contour>
  </outline>
</glyph>
<glyph name="seven" format="1">
  <advance width="480"/>
  <unicode hex="0037"/>
  <outline>
    <contour>
      <point x="52" y="680" type="move"/>
      <point x="454" y="680" type="line"/>
      <point x="115.5" y="0" type="line"/>
    </contour>
  </outline>
</glyph>
<glyph name="eight" format="1">
  <advance width="604"/>
  <unicode hex="0038"/>
  <outline>
    <contour>
      <point x="187" y="369.52"/>
      <point x="111" y="285.2"/>
      <point x="111" y="181.1" type="curve" smooth="yes"/>
      <point x="111" y="77"/>
      <point x="187" y="-7.32"/>
      <point x="302" y="-7.32" type="curve" smooth="yes"/>
      <point x="417" y="-7.32"/>
      <point x="493" y="77"/>
      <point x="493" y="181.1" type="curve" smooth="yes"/>
      <point x="493" y="285.2"/>
      <point x="417" y="369.52"/>
      <point x="302" y="369.52" type="curve" smooth="yes"/>
    </contour>
    <contour>
      <point x="205.05" y="369.52"/>
      <point x="141" y="440.66"/>
      <point x="141" y="528.42" type="curve" smooth="yes"/>
      <point x="141" y="616.18"/>
      <point x="205.05" y="687.32"/>
      <point x="302" y="687.32" type="curve" smooth="yes"/>
      <point x="398.95" y="687.32"/>
      <point x="463" y="616.18"/>
      <point x="463" y="528.42" type="curve" smooth="yes"/>
      <point x="463" y="440.66"/>
      <point x="398.95" y="369.52"/>
      <point x="302" y="369.52" type="curve" smooth="yes"/>
    </contour>
  </outline>
</glyph>
<glyph name="nine" format="1">
  <advance width="604"/>
  <unicode hex="0039"/>
  <outline>
    <contour>
      <point x="135" y="55" type="move"/>
      <point x="174.74" y="13.24"/>
      <point x="223.03" y="-7.32"/>
      <point x="288.07" y="-7.32" type="curve" smooth="yes"/>
      <point x="385.83" y="-7.32"/>
      <point x="474.13" y="65.92"/>
      <point x="493.22" y="237.03" type="curve" smooth="yes"/>
      <point x="504.77" y="340.62"/>
      <point x="511.05" y="492.3"/>
      <point x="460.24" y="588.52" type="curve"/>
      <point x="428.98" y="647.71"/>
      <point x="370.02" y="687.32"/>
      <point x="294" y="687.32" type="curve"/>
      <point x="179" y="687.32"/>
      <point x="103" y="596.65"/>
      <point x="103" y="484.65" type="curve" smooth="yes"/>
      <point x="103" y="372.65"/>
      <point x="179" y="281.98"/>
      <point x="294" y="281.98" type="curve"/>
      <point x="409" y="281.98"/>
      <point x="485" y="372.68"/>
      <point x="485" y="484.68" type="curve" smooth="yes"/>
      <point x="485" y="522.65"/>
      <point x="476.33" y="558.05"/>
      <point x="460.24" y="588.52" type="curve"/>
    </contour>
  </outline>
</glyph>
<glyph name="colon" format="1">
  <advance width="280"/>
  <unicode hex="003A"/>
  <outline>
    <contour>
      <point x="160.16" y="641.76"/>
      <point x="176.52" y="658.12"/>
      <point x="176.52" y="678.32" type="curve" smooth="yes"/>
      <point x="176.52" y="698.52"/>
      <point x="160.16" y="714.88"/>
      <point x="140" y="714.88" type="curve" smooth="yes"/>
      <point x="119.84" y="714.88"/>
      <point x="103.48" y="698.52"/>
      <point x="103.48" y="678.32" type="curve" smooth="yes"/>
      <point x="103.48" y="658.12"/>
      <point x="119.84" y="641.76"/>
      <point x="140" y="641.76" type="curve" name="filled" smooth="yes"/>
    </contour>
    <contour>
      <point x="160.16" y="0"/>
      <point x="176.52" y="16.36"/>
      <point x="176.52" y="36.56" type="curve" smooth="yes"/>
      <point x="176.52" y="56.76"/>
      <point x="160.16" y="73.12"/>
      <point x="140" y="73.12" type="curve" smooth="yes"/>
      <point x="119.84" y="73.12"/>
      <point x="103.48" y="56.76"/>
      <point x="103.48" y="36.56" type="curve" smooth="yes"/>
      <point x="103.48" y="16.36"/>
      <point x="119.84" y="0"/>
      <point x="140" y="0" type="curve" name="filled" smooth="yes"/>
    </contour>
  </outline>
</glyph>
<glyph name="semicolon" format="1">
  <advance width="280"/>
  <unicode hex="003B"/>
  <outline>
    <contour>
      <point x="160.16" y="641.76"/>
      <point x="176.52" y="658.12"/>
      <point x="176.52" y="678.32" type="curve" smooth="yes"/>
      <point x="176.52" y="698.52"/>
      <point x="160.16" y="714.88"/>
      <point x="140" y="714.88" type="curve" smooth="yes"/>
      <point x="119.84" y="714.88"/>
      <point x="103.48" y="698.52"/>
      <point x="103.48" y="678.32" type="curve" smooth="yes"/>
      <point x="103.48" y="658.12"/>
      <point x="119.84" y="641.76"/>
      <point x="140" y="641.76" type="curve" name="filled" smooth="yes"/>
    </contour>
    <contour>
      <point x="140" y="118" type="move"/>
      <point x="94" y="-160" type="line"/>
    </contour>
  </outline>
</glyph>
<glyph name="A" format="1">
  <advance width="582"/>
  <unicode hex="0041"/>
  <outline>
    <contour>
      <point x="26" y="0" type="move"/>
      <point x="291" y="680" type="line"/>
      <point x="556" y="0" type="line"/>
    </contour>
    <contour>
      <point x="106.5" y="204" type="move"/>
      <point x="475.5" y="204" type="line"/>
    </contour>
  </outline>
</glyph>
<glyph name="B" format="1">
  <advance width="583"/>
  <unicode hex="0042"/>
  <outline>
    <contour>
      <point x="294.78" y="356.96" type="move"/>
      <point x="431.2" y="356.96"/>
      <point x="485.76" y="440.96"/>
      <point x="485.76" y="518.48" type="curve" smooth="yes"/>
      <point x="485.76" y="596"/>
      <point x="431.2" y="680"/>
      <point x="294.78" y="680" type="curve" smooth="yes"/>
      <point x="104" y="680" type="line"/>
      <point x="104" y="0" type="line"/>
      <point x="314.84" y="0" type="line" smooth="yes"/>
      <point x="465.74" y="0"/>
      <point x="525.86" y="92.78"/>
      <point x="525.86" y="178.48" type="curve" smooth="yes"/>
      <point x="525.86" y="264.18"/>
      <point x="465.74" y="356.96"/>
      <point x="314.84" y="356.96" type="curve" smooth="yes"/>
      <point x="105" y="356.96" type="line"/>
    </contour>
  </outline>
</glyph>
<glyph name="C" format="1">
  <advance width="596"/>
  <unicode hex="0043"/>
  <outline>
    <contour>
      <point x="527.16" y="62" type="move"/>
      <point x="483.84" y="17.92"/>
      <point x="428.54" y="-7.32"/>
      <point x="347.54" y="-7.32" type="curve" smooth="yes"/>
      <point x="172.7" y="-7.32"/>
      <point x="75.2" y="148.14"/>
      <point x="75.2" y="340" type="curve" smooth="yes"/>
      <point x="75.2" y="531.86"/>
      <point x="172.7" y="687.32"/>
      <point x="347.54" y="687.32" type="curve" smooth="yes"/>
      <point x="428.54" y="687.32"/>
      <point x="483.84" y="662.08"/>
      <point x="527.16" y="618" type="curve"/>
    </contour>
  </outline>
</glyph>
<glyph name="D" format="1">
  <advance width="642"/>
  <unicode hex="0044"/>
  <outline>
    <contour>
      <point x="499.02" y="-7.32"/>
      <point x="566.69" y="148.14"/>
      <point x="566.69" y="340" type="curve" smooth="yes"/>
      <point x="566.69" y="531.86"/>
      <point x="499.02" y="687.32"/>
      <point x="246.12" y="687.32" type="curve" smooth="yes"/>
      <point x="104" y="687.32" type="line"/>
      <point x="104" y="-7.32" type="line"/>
      <point x="246.12" y="-7.32" type="line" smooth="yes"/>
    </contour>
  </outline>
</glyph>
<glyph name="E" format="1">
  <advance width="551"/>
  <unicode hex="0045"/>
  <outline>
    <contour>
      <point x="105" y="340" type="move"/>
      <point x="433.64" y="340" type="line"/>
    </contour>
    <contour>
      <point x="494.44" y="680" type="move"/>
      <point x="104" y="680" type="line"/>
      <point x="104" y="0" type="line"/>
      <point x="494.44" y="0" type="line"/>
    </contour>
  </outline>
</glyph>
<glyph name="F" format="1">
  <advance width="519"/>
  <unicode hex="0046"/>
  <outline>
    <contour>
      <point x="105" y="340" type="move"/>
      <point x="433.64" y="340" type="line"/>
    </contour>
    <contour>
      <point x="494.44" y="680" type="move"/>
      <point x="104" y="680" type="line"/>
      <point x="104" y="0" type="line"/>
    </contour>
  </outline>
</glyph>
<glyph name="G" format="1">
  <advance width="676"/>
  <unicode hex="0047"/>
  <outline>
    <contour>
      <point x="547.83" y="607.02" type="move"/>
      <point x="499.61" y="655.5"/>
      <point x="433.43" y="687.32"/>
      <point x="352.49" y="687.32" type="curve" smooth="yes"/>
      <point x="177.65" y="687.32"/>
      <point x="74.25" y="531.85"/>
      <point x="74.25" y="340" type="curve" smooth="yes"/>
      <point x="74.25" y="148.15"/>
      <point x="171.75" y="-7.32"/>
      <point x="346.59" y="-7.32" type="curve" smooth="yes"/>
      <point x="521.43" y="-7.32"/>
      <point x="603.75" y="120.85"/>
      <point x="600.43" y="316.9" type="curve"/>
      <point x="412.41" y="316.9" type="line"/>
    </contour>
  </outline>
</glyph>
<glyph name="H" format="1">
  <advance width="665"/>
  <unicode hex="0048"/>
  <outline>
    <contour>
      <point x="104" y="680" type="move"/>
      <point x="104" y="0" type="line"/>
    </contour>
    <contour>
      <point x="561" y="0" type="move"/>
      <point x="561" y="680" type="line"/>
    </contour>
    <contour>
      <point x="105" y="340" type="move"/>
      <point x="560" y="340" type="line"/>
    </contour>
  </outline>
</glyph>
<glyph name="I" format="1">
  <advance width="228"/>
  <unicode hex="0049"/>
  <outline>
    <contour>
      <point x="114" y="680" type="move"/>
      <point x="114" y="0" type="line"/>
    </contour>
  </outline>
</glyph>
<glyph name="J" format="1">
  <advance width="555"/>
  <unicode hex="004A"/>
  <outline>
    <contour>
      <point x="463.7" y="680" type="move"/>
      <point x="463.7" y="262.85" type="line" smooth="yes"/>
      <point x="463.7" y="69.67"/>
      <point x="344.91" y="-7.32"/>
      <point x="235.22" y="-7.32" type="curve" smooth="yes"/>
      <point x="161.46" y="-7.32"/>
      <point x="83.39" y="27.48"/>
      <point x="40.29" y="109.03" type="curve"/>
    </contour>
  </outline>
</glyph>
<glyph name="K" format="1">
  <advance width="581"/>
  <unicode hex="004B"/>
  <outline>
    <contour>
      <point x="561" y="0" type="move"/>
    </contour>
    <contour>
      <point x="104" y="680" type="move"/>
      <point x="104" y="0" type="line"/>
    </contour>
    <contour>
      <point x="561" y="0" type="move"/>
      <point x="253.38" y="399.34" type="line"/>
    </contour>
    <contour>
      <point x="534.5" y="680" type="move"/>
      <point x="105" y="252.3" type="line"/>
    </contour>
    <contour>
      <point x="534.5" y="680" type="move"/>
      <point x="105" y="252.3" type="line"/>
    </contour>
    <contour>
      <point x="561" y="0" type="move"/>
      <point x="253.38" y="399.34" type="line"/>
    </contour>
    <contour>
      <point x="561" y="0" type="move"/>
      <point x="253.38" y="399.34" type="line"/>
    </contour>
  </outline>
</glyph>
<glyph name="L" format="1">
  <advance width="532"/>
  <unicode hex="004C"/>
  <outline>
    <contour>
      <point x="104" y="680" type="move"/>
      <point x="104" y="0" type="line"/>
      <point x="494.46" y="0" type="line"/>
    </contour>
  </outline>
</glyph>
<glyph name="M" format="1">
  <advance width="738"/>
  <unicode hex="004D"/>
  <outline>
    <contour>
      <point x="634" y="0" type="move"/>
      <point x="634" y="680" type="line"/>
      <point x="369" y="152.34" type="line"/>
      <point x="104" y="680" type="line"/>
      <point x="104" y="0" type="line"/>
    </contour>
  </outline>
</glyph>
<glyph name="N" format="1">
  <advance width="728"/>
  <unicode hex="004E"/>
  <outline>
    <contour>
      <point x="592.51" y="680" type="move"/>
      <point x="592.51" y="0" type="line"/>
      <point x="135.49" y="680" type="line"/>
      <point x="135.49" y="0" type="line"/>
    </contour>
  </outline>
</glyph>
<glyph name="O" format="1">
  <advance width="718"/>
  <unicode hex="004F"/>
  <outline>
    <contour>
      <point x="627.74" y="148.15"/>
      <point x="533.98" y="-7.32"/>
      <point x="359" y="-7.32" type="curve" smooth="yes"/>
      <point x="184.16" y="-7.32"/>
      <point x="90.25" y="148.15"/>
      <point x="90.25" y="340.02" type="curve" smooth="yes"/>
      <point x="90.25" y="531.86"/>
      <point x="184.16" y="687.32"/>
      <point x="359" y="687.32" type="curve" smooth="yes"/>
      <point x="533.98" y="687.32"/>
      <point x="627.74" y="531.86"/>
      <point x="627.74" y="340.02" type="curve" smooth="yes"/>
    </contour>
  </outline>
</glyph>
<glyph name="P" format="1">
  <advance width="639"/>
  <unicode hex="0050"/>
  <outline>
    <contour>
      <point x="136.06" y="0" type="move"/>
      <point x="136.06" y="680" type="line"/>
      <point x="346.9" y="680" type="line" smooth="yes"/>
      <point x="497.8" y="680"/>
      <point x="557.92" y="587.22"/>
      <point x="557.92" y="501.52" type="curve" smooth="yes"/>
      <point x="557.92" y="415.82"/>
      <point x="497.8" y="323.04"/>
      <point x="346.9" y="323.04" type="curve" smooth="yes"/>
      <point x="136.06" y="323.04" type="line"/>
    </contour>
  </outline>
</glyph>
<glyph name="Q" format="1">
  <advance width="1300"/>
  <unicode hex="0051"/>
  <outline>
    <contour>
      <point x="1187.6" y="0" type="move"/>
      <point x="776.6" y="344.6" type="line"/>
    </contour>
    <contour>
      <point x="650" y="1374.64" type="move"/>
      <point x="1000" y="1374.64"/>
      <point x="1187.6" y="1063.72"/>
      <point x="1187.6" y="680" type="curve" smooth="yes"/>
      <point x="1187.6" y="296.28"/>
      <point x="1000" y="-14.64"/>
      <point x="650" y="-14.64" type="curve" smooth="yes"/>
      <point x="300" y="-14.64"/>
      <point x="112.4" y="296.28"/>
      <point x="112.4" y="680" type="curve" smooth="yes"/>
      <point x="112.4" y="1063.72"/>
      <point x="300" y="1374.64"/>
      <point x="650" y="1374.64" type="curve"/>
    </contour>
  </outline>
</glyph>
<glyph name="R" format="1">
  <advance width="588"/>
  <unicode hex="0052"/>
  <outline>
    <contour>
      <point x="94" y="0" type="move"/>
      <point x="94" y="680" type="line"/>
      <point x="304.84" y="680" type="line" smooth="yes"/>
      <point x="455.74" y="680"/>
      <point x="515.86" y="591.58"/>
      <point x="515.86" y="509.98" type="curve"/>
      <point x="515.86" y="428.38"/>
      <point x="455.74" y="340"/>
      <point x="304.84" y="340" type="curve" smooth="yes"/>
      <point x="95" y="340" type="line"/>
    </contour>
    <contour>
      <point x="524.36" y="0" type="move"/>
      <point x="418.58" y="257.86" type="line" smooth="yes"/>
      <point x="398.18" y="307.58"/>
      <point x="366.66" y="340"/>
      <point x="281.64" y="340" type="curve" smooth="yes"/>
    </contour>
  </outline>
</glyph>
<glyph name="S" format="1">
  <advance width="628"/>
  <unicode hex="0053"/>
  <outline>
    <contour>
      <point x="502.25" y="603.15" type="move"/>
      <point x="456.86" y="658.28"/>
      <point x="389.35" y="687.32"/>
      <point x="306.88" y="687.32" type="curve" smooth="yes"/>
      <point x="201.81" y="687.32"/>
      <point x="122.18" y="628.11"/>
      <point x="122.18" y="534" type="curve" smooth="yes"/>
      <point x="122.18" y="436.79"/>
      <point x="196.07" y="392.86"/>
      <point x="306.88" y="350.79" type="curve" smooth="yes"/>
      <point x="407.24" y="312.68"/>
      <point x="521.67" y="284.17"/>
      <point x="521.67" y="156.18" type="curve" smooth="yes"/>
      <point x="521.67" y="71.79"/>
      <point x="462.96" y="-7.32"/>
      <point x="319.32" y="-7.32" type="curve" smooth="yes"/>
      <point x="235.37" y="-7.32"/>
      <point x="148.12" y="35"/>
      <point x="106.33" y="101.87" type="curve"/>
    </contour>
  </outline>
</glyph>
<glyph name="T" format="1">
  <advance width="518"/>
  <unicode hex="0054"/>
  <outline>
    <contour>
      <point x="259" y="679" type="move"/>
      <point x="259" y="0" type="line"/>
    </contour>
    <contour>
      <point x="12" y="680" type="move"/>
      <point x="506" y="680" type="line"/>
    </contour>
  </outline>
</glyph>
<glyph name="U" format="1">
  <advance width="640"/>
  <unicode hex="0055"/>
  <outline>
    <contour>
      <point x="548.5" y="680" type="move"/>
      <point x="548.5" y="262.87" type="line" smooth="yes"/>
      <point x="548.5" y="69.67"/>
      <point x="429.7" y="-7.32"/>
      <point x="320" y="-7.32" type="curve" smooth="yes"/>
      <point x="210.3" y="-7.32"/>
      <point x="91.5" y="69.67"/>
      <point x="91.5" y="262.87" type="curve" smooth="yes"/>
      <point x="91.5" y="680" type="line"/>
    </contour>
  </outline>
</glyph>
<glyph name="V" format="1">
  <advance width="1114"/>
  <unicode hex="0056"/>
  <outline>
    <contour>
      <point x="48" y="1360" type="move"/>
      <point x="557" y="0" type="line"/>
      <point x="1066" y="1360" type="line"/>
    </contour>
  </outline>
</glyph>
<glyph name="W" format="1">
  <advance width="722"/>
  <unicode hex="0057"/>
  <outline>
    <contour>
      <point x="687.98" y="680" type="move"/>
      <point x="533" y="0" type="line"/>
      <point x="361" y="582" type="line"/>
      <point x="189" y="0" type="line"/>
      <point x="34.02" y="680" type="line"/>
    </contour>
  </outline>
</glyph>
<glyph name="X" format="1">
  <advance width="1082"/>
  <unicode hex="0058"/>
  <outline>
    <contour>
      <point x="84" y="1360" type="move"/>
      <point x="998" y="0" type="line"/>
    </contour>
    <contour>
      <point x="998" y="1360" type="move"/>
      <point x="84" y="0" type="line"/>
    </contour>
  </outline>
</glyph>
<glyph name="Y" format="1">
  <advance width="624.01"/>
  <unicode hex="0059"/>
  <outline>
    <contour>
      <point x="65.22" y="680" type="move"/>
      <point x="312" y="325.86" type="line"/>
      <point x="558.78" y="680" type="line"/>
    </contour>
    <contour>
      <point x="312" y="325.86" type="move"/>
      <point x="312" y="0" type="line"/>
    </contour>
  </outline>
</glyph>
<glyph name="Z" format="1">
  <advance width="612"/>
  <unicode hex="005A"/>
  <outline>
    <contour>
      <point x="105.72" y="680" type="move"/>
      <point x="517.74" y="680" type="line"/>
      <point x="86.66" y="0" type="line"/>
      <point x="525.34" y="0" type="line"/>
    </contour>
  </outline>
</glyph>
<glyph name=".notdef" format="1">
  <advance width="1456"/>
  <note>
	.notdef
  </note>
  <outline>
    <contour>
      <point x="272" y="0" type="line"/>
      <point x="1184" y="0" type="line"/>
      <point x="1184" y="1360" type="line"/>
      <point x="272" y="1360" type="line"/>
    </contour>
    <contour>
      <point x="274" y="1358" type="move"/>
      <point x="1182" y="2" type="line" name="butt"/>
    </contour>
    <contour>
      <point x="274" y="2" type="move"/>
      <point x="1182" y="1358" type="line" name="butt"/>
    </contour>
  </outline>
</glyph>
<glyph name="colon.decimal" format="1">
  <advance width="280"/>
  <outline>
    <contour>
      <point x="160.16" y="322.56"/>
      <point x="176.52" y="338.92"/>
      <point x="176.52" y="359.12" type="curve" smooth="yes"/>
      <point x="176.52" y="379.32"/>
      <point x="160.16" y="395.68"/>
      <point x="140" y="395.68" type="curve" smooth="yes"/>
      <point x="119.84" y="395.68"/>
      <point x="103.48" y="379.32"/>
      <point x="103.48" y="359.12" type="curve" smooth="yes"/>
      <point x="103.48" y="338.92"/>
      <point x="119.84" y="322.56"/>
      <point x="140" y="322.56" type="curve" name="filled" smooth="yes"/>
    </contour>
    <contour>
      <point x="160.16" y="964.32"/>
      <point x="176.52" y="980.68"/>
      <point x="176.52" y="1000.88" type="curve" smooth="yes"/>
      <point x="176.52" y="1021.08"/>
      <point x="160.16" y="1037.44"/>
      <point x="140" y="1037.44" type="curve" smooth="yes"/>
      <point x="119.84" y="1037.44"/>
      <point x="103.48" y="1021.08"/>
      <point x="103.48" y="1000.88" type="curve" smooth="yes"/>
      <point x="103.48" y="980.68"/>
      <point x="119.84" y="964.32"/>
      <point x="140" y="964.32" type="curve" name="filled" smooth="yes"/>
    </contour>
  </outline>
</glyph>
